<?xml version="1.0" standalone="no"?>
<!DOCTYPE svg PUBLIC "-//W3C//DTD SVG 20010904//EN"
 "http://www.w3.org/TR/2001/REC-SVG-20010904/DTD/svg10.dtd">
<svg version="1.0" xmlns="http://www.w3.org/2000/svg"
 width="159.000000pt" height="159.000000pt" viewBox="0 0 159.000000 159.000000"
 preserveAspectRatio="xMidYMid meet">
<metadata>
Created by potrace 1.14, written by Peter Selinger 2001-2017
</metadata>
<g transform="translate(0.000000,159.000000) scale(0.100000,-0.100000)"
fill="#000000" stroke="none">
<path d="M265 1576 c-129 -41 -222 -138 -250 -260 -17 -78 -13 -1007 5 -1061
39 -116 146 -216 259 -240 45 -10 986 -10 1031 0 130 28 246 149 268 281 13
72 7 1001 -6 1042 -30 93 -105 176 -201 221 l-56 26 -505 2 c-388 2 -514 -1
-545 -11z"/>
</g>
</svg>
